<svg height="512pt" viewBox="0 -9 512 512" width="512pt" xmlns="http://www.w3.org/2000/svg"><path d="m324.265625 366.933594h-119.464844c-4.710937 0-8.535156-3.824219-8.535156-8.535156 0-4.707032 3.824219-8.53125 8.535156-8.53125h119.464844c4.710937 0 8.535156 3.824218 8.535156 8.53125 0 4.710937-3.824219 8.535156-8.535156 8.535156zm0 0" fill="#afb6bb"/><g fill="#e7eced"><path d="m230.398438 435.199219c-3.234376 0-6.320313-1.84375-7.765626-4.972657l-93.863281-204.800781c-1.964843-4.285156-.085937-9.34375 4.195313-11.316406 4.292968-1.945313 9.34375-.078125 11.316406 4.207031l93.867188 204.800782c1.960937 4.285156.085937 9.34375-4.199219 11.316406-1.144531.519531-2.355469.765625-3.550781.765625zm0 0"/><path d="m264.535156 435.199219c-3.515625 0-6.8125-2.191407-8.046875-5.691407l-51.203125-145.066406c-1.570312-4.445312.761719-9.316406 5.207032-10.886718 4.453124-1.582032 9.316406.765624 10.886718 5.203124l51.203125 145.066407c1.570313 4.445312-.761719 9.320312-5.207031 10.890625-.9375.332031-1.902344.484375-2.839844.484375zm0 0"/><path d="m298.667969 435.199219c-1.1875 0-2.398438-.246094-3.550781-.777344-4.285157-1.960937-6.160157-7.03125-4.199219-11.3125l93.867187-204.800781c1.960938-4.285156 7.03125-6.152344 11.316406-4.207032 4.28125 1.960938 6.160157 7.03125 4.195313 11.316407l-93.863281 204.796875c-1.445313 3.140625-4.542969 4.984375-7.765625 4.984375zm0 0"/><path d="m264.535156 435.199219c-.898437 0-1.8125-.144531-2.699218-.441407-4.46875-1.496093-6.886719-6.324218-5.402344-10.796874l51.203125-153.597657c1.492187-4.464843 6.339843-6.886719 10.792969-5.394531 4.472656 1.492188 6.886718 6.324219 5.402343 10.792969l-51.199219 153.601562c-1.195312 3.574219-4.523437 5.835938-8.097656 5.835938zm0 0"/></g><path d="m418.132812 153.601562c0 84.828126-68.769531 153.597657-153.597656 153.597657-84.832031 0-153.601562-68.769531-153.601562-153.597657 0-84.832031 68.769531-153.601562 153.601562-153.601562 84.828125 0 153.597656 68.769531 153.597656 153.601562zm0 0" fill="#ebba16"/><path d="m332.800781 153.601562c0-84.832031-30.566406-153.601562-68.265625-153.601562-37.703125 0-68.269531 68.769531-68.269531 153.601562 0 84.828126 30.566406 153.597657 68.269531 153.597657 37.699219 0 68.265625-68.769531 68.265625-153.597657zm0 0" fill="#ed8a19"/><path d="m204.800781 426.667969h119.464844v68.265625h-119.464844zm0 0" fill="#fbce9d"/><path d="m341.332031 435.199219h-153.597656c-4.710937 0-8.535156-3.820313-8.535156-8.53125 0-4.710938 3.824219-8.535157 8.535156-8.535157h153.597656c4.710938 0 8.535157 3.824219 8.535157 8.535157 0 4.710937-3.824219 8.53125-8.535157 8.53125zm0 0" fill="#ddae80"/><path d="m341.332031 469.332031h-153.597656c-4.710937 0-8.535156-3.820312-8.535156-8.53125 0-4.710937 3.824219-8.535156 8.535156-8.535156h153.597656c4.710938 0 8.535157 3.824219 8.535157 8.535156 0 4.710938-3.824219 8.53125-8.535157 8.53125zm0 0" fill="#ddae80"/><path d="m34.132812 93.867188c-4.710937 0-8.53125-3.824219-8.53125-8.535157 0-9.410156-7.65625-17.066406-17.066406-17.066406-4.710937 0-8.535156-3.820313-8.535156-8.53125s3.824219-8.535156 8.535156-8.535156c9.078125 0 17.339844 3.566406 23.464844 9.371093 8.738281-15.753906 25.546875-26.4375 44.800781-26.4375 4.710938 0 8.53125 3.824219 8.53125 8.535157 0 4.710937-3.820312 8.53125-8.53125 8.53125-18.824219 0-34.132812 15.308593-34.132812 34.132812 0 4.710938-3.824219 8.535157-8.535157 8.535157zm0 0" fill="#28384c"/><path d="m460.800781 273.066406c-4.710937 0-8.535156-3.824218-8.535156-8.53125 0-9.414062-7.652344-17.070312-17.066406-17.070312-4.710938 0-8.53125-3.820313-8.53125-8.53125 0-4.710938 3.820312-8.535156 8.53125-8.535156 9.082031 0 17.339843 3.570312 23.46875 9.371093 8.738281-15.753906 25.546875-26.4375 44.796875-26.4375 4.710937 0 8.535156 3.824219 8.535156 8.535157 0 4.710937-3.824219 8.53125-8.535156 8.53125-18.824219 0-34.132813 15.308593-34.132813 34.136718 0 4.707032-3.820312 8.53125-8.53125 8.53125zm0 0" fill="#28384c"/><path d="m119.464844 307.199219c-3.257813 0-6.347656.667969-9.214844 1.777343-3.132812-15.609374-16.914062-27.375-33.449219-27.375-16.539062 0-30.320312 11.765626-33.453125 27.375-2.867187-1.109374-5.953125-1.777343-9.214844-1.777343-14.140624 0-25.597656 11.460937-25.597656 25.601562s11.457032 25.597657 25.597656 25.597657h85.332032c14.140625 0 25.601562-11.457032 25.601562-25.597657s-11.460937-25.601562-25.601562-25.601562zm0 0" fill="#afb6bb"/><path d="m477.867188 358.398438c-3.261719 0-6.347657.667968-9.214844 1.777343-3.132813-15.609375-16.914063-27.375-33.453125-27.375-16.535157 0-30.316407 11.765625-33.449219 27.375-2.867188-1.109375-5.957031-1.777343-9.214844-1.777343-14.140625 0-25.601562 11.460937-25.601562 25.601562s11.460937 25.601562 25.601562 25.601562h85.332032c14.140624 0 25.597656-11.460937 25.597656-25.601562s-11.457032-25.601562-25.597656-25.601562zm0 0" fill="#afb6bb"/><path d="m418.132812 153.601562c0 23.5625-19.101562 42.664063-42.667968 42.664063-23.5625 0-42.664063-19.101563-42.664063-42.664063 0-23.566406 19.101563-42.667968 42.664063-42.667968 23.566406 0 42.667968 19.101562 42.667968 42.667968zm0 0" fill="#ed8a19"/><path d="m196.265625 153.601562c0 23.5625-19.101563 42.664063-42.664063 42.664063-23.566406 0-42.667968-19.101563-42.667968-42.664063 0-23.566406 19.101562-42.667968 42.667968-42.667968 23.5625 0 42.664063 19.101562 42.664063 42.667968zm0 0" fill="#ed8a19"/><path d="m332.800781 153.601562c0 37.699219-30.566406 68.265626-68.265625 68.265626-37.703125 0-68.269531-30.566407-68.269531-68.265626 0-37.703124 30.566406-68.269531 68.269531-68.269531 37.699219 0 68.265625 30.566407 68.265625 68.269531zm0 0" fill="#dc691d"/></svg>