<svg xmlns="http://www.w3.org/2000/svg" width="512" height="512" style=""><rect id="backgroundrect" width="100%" height="100%" x="0" y="0" fill="none" stroke="none"/><g class="currentLayer" style=""><title>Layer 1</title><rect fill="#ffffff" style="color: rgb(0, 0, 0);" stroke-dashoffset="" fill-rule="nonzero" id="svg_2" x="0" y="1.1228070259094238" width="512" height="510" class="" fill-opacity="1"/><rect fill="#e84141" style="color: rgb(0, 0, 0);" stroke-dashoffset="" fill-rule="nonzero" id="svg_4" x="182.2105255126953" y="145.31578397750854" width="140" height="41" class="" fill-opacity="1"/><rect fill="#ecabec" style="color: rgb(0, 0, 0);" stroke-dashoffset="" fill-rule="nonzero" id="svg_3" x="199.54385375976562" y="208.29823637008667" width="153.38597106933594" height="31" class="" fill-opacity="1"/><rect fill="#1aeb1a" style="color: rgb(247, 247, 32);" stroke-dashoffset="" fill-rule="nonzero" id="svg_5" x="185.26315307617188" y="250.4736819267273" width="179" height="40" class="" fill-opacity="1"/><rect fill="#ffffff" style="color: rgb(247, 247, 32);" stroke-dashoffset="" fill-rule="nonzero" id="svg_8" x="183.877197265625" y="304.0877261161804" width="189.45614624023438" height="46" class="" fill-opacity="1"/><path d="M170.99728393554688,138.5695605278015 v205.21522521972656 c0,4.907320976257324 -4.01508092880249,8.922401428222656 -8.922401428222656,8.922401428222656 s-8.922401428222656,-4.01508092880249 -8.922401428222656,-8.922401428222656 V158.9635729789734 H142.95545959472656 c-11.280465126037598,0 -20.394060134887695,9.113595962524414 -20.394060134887695,20.394060134887695 v183.54653930664062 c0,11.280465126037598 9.113595962524414,20.394060134887695 20.394060134887695,20.394060134887695 h225.0357208251953 c10.834344863891602,0 19.69301414489746,-8.794939041137695 19.69301414489746,-19.69301414489746 V138.5695605278015 c0,-11.280465126037598 -9.113595962524414,-20.394060134887695 -20.394060134887695,-20.394060134887695 l-177.17340087890625,1.274628758430481 c-11.280465126037598,0 -19.11943244934082,7.838967323303223 -19.11943244934082,19.11943244934082 zm42.06275177001953,20.394060134887695 h53.5344123840332 c4.907320976257324,0 8.922401428222656,4.01508092880249 8.922401428222656,8.922401428222656 s-4.01508092880249,8.922401428222656 -8.922401428222656,8.922401428222656 h-53.5344123840332 c-4.907320976257324,0 -8.922401428222656,-4.01508092880249 -8.922401428222656,-8.922401428222656 s4.01508092880249,-8.922401428222656 8.922401428222656,-8.922401428222656 zm0,101.97030639648438 h94.3225326538086 c4.907320976257324,0 8.922401428222656,4.01508092880249 8.922401428222656,8.922401428222656 s-4.01508092880249,8.922401428222656 -8.922401428222656,8.922401428222656 H213.06004333496094 c-4.907320976257324,0 -8.922401428222656,-4.01508092880249 -8.922401428222656,-8.922401428222656 s4.01508092880249,-8.922401428222656 8.922401428222656,-8.922401428222656 zm124.91362762451172,68.8299560546875 H213.06004333496094 c-4.907320976257324,0 -8.922401428222656,-4.01508092880249 -8.922401428222656,-8.922401428222656 s4.01508092880249,-8.922401428222656 8.922401428222656,-8.922401428222656 h124.91362762451172 c4.907320976257324,0 8.922401428222656,4.01508092880249 8.922401428222656,8.922401428222656 s-4.01508092880249,8.922401428222656 -8.922401428222656,8.922401428222656 zm0,-101.97030639648438 H213.06004333496094 c-4.907320976257324,0 -8.922401428222656,-4.01508092880249 -8.922401428222656,-8.922401428222656 s4.01508092880249,-8.922401428222656 8.922401428222656,-8.922401428222656 h124.91362762451172 c4.907320976257324,0 8.922401428222656,4.01508092880249 8.922401428222656,8.922401428222656 s-4.01508092880249,8.922401428222656 -8.922401428222656,8.922401428222656 z" id="svg_1" class="" fill="#3a3a3a" fill-opacity="1"/></g></svg>